<svg width="498" height="264" viewBox="0 0 498 264" fill="none" xmlns="http://www.w3.org/2000/svg">
<path d="M414.467 185.192C414.724 181.642 414.85 178.074 414.844 174.49C414.795 147.948 407.359 106.96 376.182 95.9483C336.938 82.1296 330.639 96.2472 294.051 85.7638C250.099 73.155 234.884 23.6393 181.344 36.7024C160.46 41.7863 149.42 54.9924 147.24 74.3945C145.382 90.9886 150.821 114.109 138.555 127.875C125.232 142.842 91.4637 162.48 81.1819 196.099C70.9001 229.717 96.2713 278.585 136.15 290.467C176.029 302.349 219.749 281.977 245.771 291.446C259.961 296.618 270.969 306.499 284.169 313.288C301.031 321.953 326.886 331.221 345.515 323.869C362.076 317.336 371.377 300.55 379.453 286.63C397.222 255.88 411.95 220.593 414.467 185.192Z" fill="#253F94"/>
<path opacity="0.8" d="M414.467 185.192C414.724 181.642 414.85 178.074 414.844 174.49C414.795 147.948 407.359 106.96 376.182 95.9483C336.938 82.1296 330.639 96.2472 294.051 85.7638C250.099 73.155 234.884 23.6393 181.344 36.7024C160.46 41.7863 149.42 54.9924 147.24 74.3945C145.382 90.9886 150.821 114.109 138.555 127.875C125.232 142.842 91.4637 162.48 81.1819 196.099C70.9001 229.717 96.2713 278.585 136.15 290.467C176.029 302.349 219.749 281.977 245.771 291.446C259.961 296.618 270.969 306.499 284.169 313.288C301.031 321.953 326.886 331.221 345.515 323.869C362.076 317.336 371.377 300.55 379.453 286.63C397.222 255.88 411.95 220.593 414.467 185.192Z" fill="white"/>
<path d="M376.387 149.575L378.849 157.736L387.063 160.406L379.949 165.187L379.947 173.684L373.094 168.483L364.885 171.061L367.756 163.064L362.678 156.158L371.31 156.423L376.387 149.575Z" fill="white"/>
<path d="M262.059 136.897L264.513 145.056L272.726 147.725L265.612 152.507L265.619 161.006L258.767 155.796L250.548 158.381L253.428 150.385L248.35 143.48L256.982 143.745L262.059 136.897Z" fill="white"/>
<path d="M333.718 160.696L337.229 163.44L341.503 162.155L339.954 166.28L342.535 169.895L338.063 169.701L335.388 173.208L334.168 168.962L329.931 167.519L333.651 165.097L333.718 160.696Z" fill="white"/>
<path d="M205.829 47.2109L209.341 49.9471L213.614 48.6701L212.065 52.7952L214.646 56.4099L210.176 56.2076L207.499 59.7235L206.287 55.4787L202.042 54.0341L205.762 51.6115L205.829 47.2109Z" fill="white"/>
<path d="M109.302 197.84L112.822 200.586L117.095 199.309L115.547 203.425L118.128 207.04L113.656 206.846L110.979 210.362L109.759 206.116L105.522 204.673L109.244 202.242L109.302 197.84Z" fill="white"/>
<path d="M236.994 160.476C237.409 160.55 237.74 160.621 237.965 160.672C238.078 160.698 238.165 160.718 238.222 160.733C238.251 160.74 238.273 160.745 238.287 160.749C238.299 160.753 238.315 160.76 238.334 160.767C238.385 160.786 238.46 160.815 238.559 160.853C238.758 160.928 239.054 161.04 239.439 161.185C240.21 161.477 241.34 161.905 242.781 162.451C245.663 163.543 249.787 165.106 254.753 166.992C264.685 170.763 277.988 175.823 291.466 180.978C304.945 186.133 318.599 191.383 329.236 195.534C334.554 197.609 339.118 199.409 342.527 200.785C345.953 202.167 348.178 203.108 348.853 203.472C351.646 204.975 358.015 209.271 364.17 213.548C370.313 217.817 376.204 222.041 378.022 223.378C378.357 223.625 378.752 224.217 379.126 225.182C379.491 226.125 379.809 227.352 380.034 228.777C380.484 231.626 380.558 235.218 379.947 238.815C378.724 246.018 374.795 253.104 365.789 254.536C356.467 256.018 352.008 258.123 349.639 261.348C348.46 262.954 347.828 264.799 347.343 266.881C347.101 267.922 346.893 269.034 346.674 270.209C346.454 271.388 346.222 272.636 345.93 273.966C344.761 279.3 343.107 284.483 340.034 288.673C336.974 292.845 332.487 296.061 325.589 297.434C322.124 298.123 318.871 298.28 315.763 298.321C312.67 298.361 309.679 298.286 306.818 298.522C303.943 298.76 301.154 299.312 298.418 300.625C295.679 301.939 293.019 304.001 290.382 307.223C287.772 310.411 285.334 313.824 282.884 317.261C280.431 320.702 277.967 324.168 275.293 327.486C269.949 334.118 263.789 340.127 255.3 344.07C238.275 351.977 224.881 349.379 215.89 340.771L215.891 340.771C212.648 337.658 211.263 332.949 210.416 328.269C209.993 325.928 209.714 323.653 209.389 321.584C209.069 319.542 208.705 317.7 208.109 316.335C207.448 314.823 206.114 314.141 204.504 313.823C202.915 313.509 200.933 313.525 198.839 313.496C194.594 313.438 189.699 313.196 185.487 310.004C183.357 308.39 182.116 306.859 181.401 305.396C180.688 303.935 180.482 302.506 180.478 301.064C180.474 299.581 180.675 298.191 180.757 296.647C180.837 295.142 180.793 293.586 180.257 291.99C179.682 290.28 178.203 289.185 176.344 288.378C174.483 287.571 172.129 287.004 169.658 286.413C164.658 285.218 159.128 283.907 155.404 280.418C151.723 276.969 151.344 273.059 151.818 269.55C152.057 267.783 152.509 266.138 152.871 264.69C153.049 263.973 153.208 263.298 153.298 262.695C153.388 262.097 153.417 261.527 153.312 261.032C153.192 260.467 152.856 260.068 152.389 259.813C151.945 259.572 151.391 259.463 150.805 259.42C149.637 259.333 148.11 259.492 146.555 259.617C144.97 259.744 143.316 259.841 141.798 259.664C140.282 259.487 138.956 259.041 137.985 258.127C135.968 256.231 135.695 254.097 135.922 252.415C136.036 251.568 136.278 250.836 136.492 250.316C136.599 250.057 136.698 249.852 136.77 249.713C136.806 249.644 136.834 249.591 136.854 249.557C136.863 249.54 136.87 249.528 136.875 249.52C136.877 249.517 136.878 249.514 136.879 249.512L136.88 249.511L136.879 249.511L137.287 248.84L136.505 248.756L136.501 248.755L136.413 248.745C136.351 248.738 136.258 248.727 136.139 248.711C135.9 248.679 135.554 248.629 135.129 248.559C134.279 248.418 133.114 248.195 131.858 247.862C130.601 247.528 129.262 247.088 128.058 246.519C126.848 245.947 125.806 245.258 125.111 244.444C124.46 243.681 124.351 242.929 124.527 242.202C124.711 241.443 125.216 240.681 125.855 239.983C126.487 239.291 127.217 238.699 127.794 238.277C128.082 238.067 128.329 237.901 128.503 237.789C128.59 237.733 128.658 237.69 128.704 237.661C128.728 237.647 128.745 237.636 128.757 237.629C128.762 237.625 128.767 237.624 128.77 237.622C128.771 237.621 128.773 237.62 128.773 237.62L128.772 237.619L129.803 237.012L128.647 236.706C126.933 236.251 125.283 235.587 123.735 234.73C122.898 234.188 122.03 233.329 121.67 232.235C121.32 231.171 121.42 229.792 122.693 228.116C124.077 226.296 126.356 222.405 128.422 218.535C130.486 214.671 132.382 210.749 132.975 208.867C133.243 208.015 133.606 207.362 134.209 206.744C134.824 206.114 135.706 205.501 137.046 204.762C139.742 203.275 144.107 201.369 151.48 197.814C158.825 194.272 177.231 185.296 193.798 177.206C202.082 173.161 209.907 169.337 215.661 166.524C218.538 165.118 220.897 163.965 222.537 163.163C223.356 162.762 223.997 162.449 224.432 162.236C224.649 162.13 224.816 162.048 224.928 161.994C224.984 161.966 225.027 161.945 225.055 161.931C225.069 161.925 225.079 161.92 225.086 161.916C225.09 161.914 225.093 161.913 225.095 161.912L225.097 161.911L225.12 161.9L225.141 161.887C227.735 160.285 231.003 159.984 233.674 160.105C235.002 160.165 236.165 160.328 236.994 160.476Z" fill="white" stroke="#F1F3F8"/>
<path d="M350.294 204.28C353.501 206.207 358.919 209.876 364.181 213.533C370.324 217.802 376.215 222.026 378.033 223.363C378.368 223.61 378.764 224.201 379.138 225.168C379.503 226.113 379.82 227.343 380.045 228.77C380.495 231.624 380.569 235.221 379.958 238.825C378.735 246.041 374.806 253.14 365.8 254.572C356.478 256.054 352.019 258.159 349.651 261.384C348.471 262.99 347.84 264.835 347.355 266.917C347.112 267.958 346.904 269.069 346.685 270.245C346.465 271.424 346.233 272.672 345.941 274.002C344.773 279.337 343.118 284.52 340.045 288.71C336.985 292.882 332.498 296.098 325.6 297.471C322.135 298.16 318.882 298.317 315.774 298.357C312.681 298.398 309.69 298.322 306.83 298.558C303.954 298.795 301.166 299.349 298.429 300.661C295.69 301.975 293.03 304.038 290.393 307.259C287.783 310.447 285.345 313.861 282.895 317.298C280.442 320.739 277.978 324.205 275.304 327.523C269.96 334.154 263.8 340.163 255.311 344.106C238.552 351.89 225.313 349.493 216.326 341.206L215.901 340.807C212.659 337.694 211.274 332.985 210.428 328.306C210.004 325.964 209.725 323.689 209.4 321.62C209.08 319.578 208.717 317.736 208.12 316.371C207.459 314.859 206.125 314.178 204.515 313.86C202.926 313.546 200.944 313.561 198.85 313.532C194.605 313.474 189.711 313.233 185.498 310.041C183.368 308.427 182.127 306.896 181.412 305.433C180.699 303.972 180.494 302.543 180.489 301.101C180.485 299.618 180.686 298.228 180.768 296.684C180.848 295.178 180.804 293.622 180.268 292.026C179.693 290.315 178.214 289.222 176.355 288.415C174.494 287.608 172.14 287.041 169.669 286.45C164.669 285.254 159.14 283.944 155.415 280.454C151.734 277.005 151.355 273.095 151.829 269.587C152.068 267.819 152.52 266.173 152.882 264.726C153.061 264.009 153.219 263.334 153.31 262.73C153.399 262.133 153.429 261.562 153.324 261.068C153.204 260.503 152.867 260.104 152.4 259.85C151.956 259.608 151.402 259.5 150.816 259.456C149.648 259.369 148.122 259.528 146.566 259.653C144.981 259.78 143.327 259.878 141.809 259.701C140.293 259.523 138.968 259.077 137.996 258.163C135.979 256.267 135.706 254.133 135.933 252.451C136.047 251.604 136.289 250.872 136.504 250.352C136.611 250.092 136.71 249.887 136.781 249.749C136.817 249.68 136.846 249.628 136.865 249.594C136.874 249.577 136.881 249.565 136.886 249.557C136.888 249.553 136.889 249.55 136.89 249.549L136.891 249.548L136.89 249.548L137.298 248.875L136.516 248.793L136.512 248.792L136.424 248.782C136.362 248.774 136.269 248.763 136.15 248.747C135.911 248.715 135.565 248.666 135.14 248.596C134.29 248.455 133.125 248.231 131.87 247.898C130.612 247.565 129.274 247.124 128.069 246.554C126.86 245.982 125.817 245.295 125.122 244.481C124.471 243.718 124.362 242.966 124.539 242.239C124.723 241.48 125.227 240.717 125.866 240.019C126.499 239.327 127.228 238.735 127.805 238.314C128.093 238.104 128.34 237.938 128.514 237.825C128.601 237.769 128.669 237.726 128.716 237.697C128.739 237.683 128.756 237.672 128.768 237.665C128.774 237.662 128.778 237.659 128.781 237.658C128.782 237.657 128.783 237.656 128.783 237.656L128.784 237.656L128.783 237.655L129.814 237.049L128.658 236.742C126.944 236.288 125.294 235.624 123.746 234.767C122.909 234.225 122.041 233.366 121.681 232.272C121.331 231.208 121.431 229.829 122.705 228.153C124.088 226.332 126.365 222.436 128.431 218.565C130.494 214.697 132.389 210.776 132.985 208.905L132.986 208.902C133.277 207.971 133.806 207.14 134.513 206.481C134.341 207.205 134.266 207.95 134.296 208.699L134.297 208.71L134.298 208.72C134.375 209.646 134.899 210.383 135.608 210.993C136.312 211.6 137.246 212.121 138.245 212.613C140.289 213.62 142.613 214.52 144.392 215.827C145.236 216.447 145.919 217.29 146.556 218.269C147.202 219.26 147.762 220.326 148.418 221.438C149.706 223.62 151.278 225.826 154.156 226.862C156.886 227.846 159.856 228.42 162.354 229.084C164.765 229.725 166.718 230.445 167.904 231.634C167.875 231.704 167.842 231.788 167.805 231.881C167.666 232.232 167.469 232.737 167.236 233.361C166.77 234.609 166.159 236.332 165.579 238.228C165 240.123 164.45 242.2 164.108 244.155C163.769 246.098 163.627 247.968 163.897 249.428C164.038 250.193 164.371 250.779 164.975 251.025C165.545 251.257 166.191 251.112 166.785 250.853C167.985 250.329 169.439 249.126 170.819 247.864C171.518 247.225 172.214 246.557 172.865 245.929C173.519 245.3 174.126 244.714 174.656 244.233C175.194 243.746 175.625 243.393 175.929 243.208C175.938 243.203 175.947 243.198 175.955 243.193C175.97 243.291 175.982 243.41 175.987 243.552C175.998 243.856 175.98 244.222 175.943 244.629C175.868 245.446 175.724 246.364 175.609 247.205C175.552 247.62 175.503 248.016 175.476 248.359C175.451 248.691 175.443 249.016 175.488 249.269C175.51 249.392 175.554 249.556 175.661 249.697C175.79 249.868 175.997 249.98 176.242 249.959C176.441 249.943 176.605 249.844 176.719 249.758C176.842 249.665 176.967 249.542 177.094 249.398L177.094 249.396C178.158 248.177 180.004 246.422 181.348 245.179L181.351 245.182L181.358 245.187L181.937 245.71C181.864 247.116 181.849 248.911 182.108 250.327C182.244 251.067 182.465 251.775 182.848 252.263C183.047 252.515 183.301 252.723 183.619 252.833C183.941 252.944 184.286 252.941 184.639 252.838L184.638 252.836C185.23 252.679 185.758 252.237 186.218 251.693C186.586 251.257 186.939 250.721 187.277 250.126C190.024 252.247 192.581 254.128 194.07 255.566L194.368 255.863C194.905 256.42 195.604 257.323 196.43 258.442C197.16 259.43 198.004 260.601 198.883 261.792C198.548 262.06 198.241 262.362 197.969 262.693L197.917 262.757L197.889 262.833L197.888 262.834L197.887 262.835C197.887 262.836 197.886 262.838 197.886 262.839C197.884 262.843 197.882 262.849 197.88 262.856C197.874 262.871 197.865 262.894 197.854 262.924C197.832 262.984 197.799 263.072 197.756 263.188C197.669 263.418 197.543 263.757 197.383 264.19C197.063 265.056 196.608 266.298 196.069 267.805C194.991 270.818 193.574 274.892 192.221 279.129C190.869 283.363 189.577 287.771 188.751 291.451C188.338 293.29 188.039 294.96 187.908 296.34C187.78 297.696 187.805 298.857 188.108 299.625C188.273 300.045 188.574 300.399 189.058 300.457C189.482 300.507 189.895 300.303 190.244 300.054C190.961 299.542 191.81 298.544 192.72 297.287C194.558 294.748 196.797 290.931 198.936 287.109C200.007 285.195 201.056 283.274 202.021 281.504C202.986 279.732 203.865 278.113 204.6 276.8C204.843 276.365 205.069 275.966 205.276 275.607C205.119 276.08 204.943 276.57 204.758 277.063C204.283 278.327 203.737 279.654 203.381 280.643C203.201 281.143 203.055 281.597 202.982 281.954C202.946 282.13 202.921 282.313 202.93 282.479C202.939 282.624 202.981 282.893 203.219 283.067C203.471 283.252 203.753 283.194 203.911 283.137C204.082 283.076 204.259 282.967 204.435 282.837C204.793 282.573 205.265 282.136 205.867 281.513L205.875 281.506C208.26 278.944 210.071 275.919 211.198 272.625C214.193 274.174 217.499 275.844 220.28 277.342C219.367 280.855 216.91 290.702 215.511 299.321C214.785 303.787 214.335 307.971 214.548 310.776C214.602 311.481 214.699 312.114 214.849 312.651C214.999 313.183 215.21 313.652 215.515 314.001C215.832 314.363 216.244 314.587 216.743 314.607C217.221 314.627 217.722 314.457 218.235 314.155L218.237 314.154C220.124 313.034 221.703 310.56 223.04 307.573C224.389 304.558 225.535 300.913 226.501 297.321C227.467 293.727 228.257 290.168 228.888 287.326C229.204 285.902 229.479 284.663 229.718 283.684C229.8 283.347 229.878 283.047 229.949 282.784C230.186 284.808 230.498 286.848 230.824 288.622C229.944 294.735 228.496 305.158 227.393 314.989C226.839 319.926 226.371 324.718 226.107 328.743C225.843 332.752 225.777 336.044 226.042 337.954L226.042 337.955C226.391 340.461 227.889 342.689 229.93 344.295C231.973 345.902 234.593 346.914 237.248 346.969C239.912 347.024 242.611 346.113 244.767 343.877C246.918 341.647 248.49 338.142 249 333.075C250.015 322.981 247.046 311.52 244.207 302.752C242.791 298.381 241.381 294.603 240.53 292.064C240.097 290.773 239.812 289.812 239.716 289.212C239.714 289.199 239.713 289.187 239.711 289.175C239.754 289.217 239.802 289.265 239.855 289.321C240.094 289.577 240.379 289.938 240.703 290.392C241.35 291.298 242.126 292.536 242.969 293.965C244.656 296.822 246.593 300.395 248.297 303.504C249.148 305.057 249.943 306.493 250.616 307.662C251.283 308.822 251.847 309.745 252.237 310.252C252.335 310.38 252.434 310.496 252.529 310.586C252.576 310.631 252.633 310.679 252.696 310.72C252.754 310.757 252.853 310.81 252.979 310.825C253.127 310.843 253.296 310.805 253.43 310.681C253.546 310.575 253.59 310.447 253.609 310.369C253.647 310.218 253.637 310.05 253.621 309.912C253.554 309.339 253.231 308.209 252.627 306.425L252.627 306.424C248.953 295.593 242.859 285.989 239.75 281.212C242.254 280.265 245.014 278.768 247.928 277.133C251.09 275.358 254.448 273.415 257.938 271.774C258.671 271.432 259.43 271.012 260.25 270.563C262.007 272.579 264.461 274.694 267.342 275.471L267.345 275.471C268.006 275.646 268.561 275.751 269.021 275.781C269.474 275.811 269.881 275.771 270.214 275.613C270.572 275.442 270.797 275.154 270.902 274.8C270.999 274.471 270.988 274.1 270.936 273.731C270.832 273 270.525 272.054 270.205 271.01C269.877 269.944 269.518 268.727 269.273 267.385C269.244 267.23 269.23 267.109 269.224 267.015C269.378 267.106 269.575 267.252 269.815 267.457C270.854 268.342 272.422 270.066 274.295 272.096C276.152 274.109 278.286 276.394 280.422 278.348C282.546 280.292 284.723 281.955 286.67 282.675C287.13 282.845 287.558 282.931 287.937 282.889C288.339 282.844 288.673 282.653 288.891 282.322C289.094 282.014 289.165 281.633 289.171 281.246C289.177 280.853 289.115 280.405 289.007 279.922C288.579 278.006 287.34 275.22 285.847 272.295C283.034 266.785 279.223 260.609 277.831 258.385C281.845 255.355 285.304 252.73 287.203 251.488C288.425 250.696 290.926 249.565 294.139 248.216C297.342 246.872 301.189 245.337 305.092 243.727C308.987 242.12 312.926 240.444 316.279 238.83C316.484 238.731 316.686 238.629 316.888 238.53C316.916 238.668 316.962 238.816 317.015 238.959C317.664 240.704 318.514 244.915 318.933 248.481C319.143 250.264 319.238 251.841 319.158 252.845C319.138 253.093 319.108 253.293 319.071 253.446C319.062 253.484 319.049 253.516 319.04 253.545C318.849 253.359 318.602 253.01 318.307 252.497C317.993 251.949 317.652 251.264 317.291 250.505C316.579 249.003 315.786 247.19 315.031 245.695C314.652 244.943 314.271 244.251 313.901 243.696C313.544 243.159 313.153 242.682 312.734 242.442C312.513 242.315 312.245 242.232 311.954 242.283C311.66 242.335 311.429 242.51 311.253 242.732C310.922 243.15 310.697 243.851 310.532 244.798L310.521 244.856L310.525 244.913L310.525 244.914L310.525 244.915C310.525 244.916 310.525 244.918 310.525 244.92C310.525 244.925 310.526 244.932 310.526 244.941C310.528 244.96 310.53 244.987 310.532 245.023C310.536 245.096 310.542 245.204 310.55 245.344C310.568 245.624 310.594 246.036 310.629 246.562C310.698 247.613 310.803 249.121 310.942 250.946C311.22 254.596 311.637 259.517 312.196 264.6C312.754 269.681 313.454 274.932 314.299 279.24C314.721 281.393 315.181 283.32 315.681 284.877C316.175 286.415 316.728 287.657 317.364 288.382C319.73 291.071 324.306 292.57 327.764 290.298C331.232 288.02 333.246 282.169 331.026 270.892C328.803 259.594 325.188 250.599 322.293 244.873C320.847 242.014 319.574 239.957 318.736 238.833C318.526 238.552 318.338 238.322 318.176 238.149C318.117 238.086 318.058 238.028 318 237.976C320.574 236.669 322.708 235.407 324.022 234.256C330.205 228.844 335.653 224.003 341.176 221.412L341.182 221.41C341.988 221.019 342.871 220.644 343.797 220.235C344.603 219.88 345.432 219.498 346.241 219.073C348.918 221.89 353.742 226.78 358.58 230.718C361.077 232.751 363.598 234.548 365.843 235.672C366.965 236.234 368.038 236.637 369.017 236.812C369.935 236.975 370.804 236.942 371.558 236.614L371.707 236.544C372.59 236.103 373.237 235.503 373.655 234.772C374.071 234.044 374.244 233.215 374.229 232.338C374.2 230.599 373.437 228.62 372.279 226.669C369.958 222.761 365.921 218.746 362.276 216.635C360.501 215.607 359.353 214.817 358.674 214.233C358.333 213.94 358.131 213.716 358.026 213.556C358.017 213.542 358.01 213.529 358.003 213.517C358.113 213.496 358.275 213.486 358.495 213.499C359.023 213.53 359.748 213.683 360.539 213.939L360.542 213.941C360.729 214 360.898 214.043 361.037 214.061C361.104 214.069 361.194 214.077 361.288 214.062C361.37 214.049 361.566 214.002 361.689 213.806C361.819 213.598 361.766 213.393 361.732 213.305C361.696 213.211 361.641 213.136 361.602 213.088C361.52 212.986 361.407 212.88 361.287 212.779C360.804 212.371 359.859 211.735 358.722 211.018C356.49 209.61 353.407 207.819 351.241 206.643C350.965 205.841 350.65 205.051 350.294 204.28Z" fill="#DCE0EE" stroke="#DCE0EE"/>
<path opacity="0.6" d="M378.329 222.96C374.684 220.278 354.748 206.055 349.101 203.016C349.793 204.29 350.372 205.62 350.832 206.99C355.159 209.326 363.545 214.365 360.693 213.464C357.439 212.407 354.889 212.935 362.025 217.067C369.161 221.2 377.932 232.876 371.483 236.097C366.214 238.723 351.566 223.976 346.342 218.456C344.553 219.434 342.597 220.169 340.964 220.959C335.362 223.587 329.855 228.485 323.692 233.88C317.53 239.274 291.999 247.781 286.93 251.069C284.956 252.359 281.325 255.124 277.165 258.262C279.419 261.845 293.649 284.724 286.844 282.206C279.446 279.473 267.777 261.985 268.781 267.475C269.784 272.965 272.641 276.353 267.472 274.988C264.59 274.211 262.113 272.007 260.366 269.931C259.399 270.46 258.546 270.939 257.727 271.321C250.704 274.622 244.213 279.142 238.989 280.959C241.972 285.529 248.362 295.406 252.154 306.585C257.017 320.953 242.374 289.401 239.563 288.464C236.751 287.527 250.51 313.059 248.502 333.025C246.495 352.99 227.847 347.291 226.537 337.886C225.51 330.474 229.574 300.812 231.331 288.613C230.966 286.64 230.617 284.326 230.37 282.072C230.346 281.862 230.323 281.694 230.295 281.552L229.845 281.473C228.491 284.523 224.948 309.588 217.982 313.724C210.504 318.133 219.225 283.331 220.863 277.088C217.85 275.454 214.149 273.596 210.907 271.914C209.822 275.354 207.978 278.513 205.508 281.165C200.717 286.119 205.604 277.802 206.341 273.57C207.078 269.337 190.617 304.632 188.573 299.442C186.528 294.253 198.356 263.01 198.356 263.01C198.707 262.583 199.12 262.208 199.582 261.899C197.597 259.232 195.854 256.683 194.727 255.515C193.192 253.932 190.201 251.768 187.119 249.373C186.293 250.95 185.397 252.127 184.499 252.358C182.334 252.987 182.282 248.359 182.448 245.498L181.692 244.816L181.355 244.491C180.001 245.734 177.898 247.716 176.718 249.067C174.874 251.163 177.049 244.3 176.344 242.723C175.639 241.147 165.402 254.82 164.388 249.337C163.375 243.853 168.488 231.525 168.488 231.525C165.949 228.622 159.734 228.34 154.326 226.392C148.917 224.444 148.341 218.108 144.688 215.424C141.035 212.741 135.046 211.664 134.796 208.679C134.747 207.473 134.983 206.275 135.485 205.178C134.055 205.94 132.987 207.223 132.509 208.753C131.349 212.396 125.019 224.281 122.307 227.851C119.594 231.421 121.692 234.039 123.486 235.195C125.075 236.077 126.77 236.759 128.53 237.226C128.53 237.226 121.705 241.249 124.743 244.806C127.78 248.362 136.463 249.289 136.463 249.289C136.463 249.289 133.331 254.464 137.653 258.528C141.976 262.592 152.143 257.912 152.835 261.172C153.527 264.432 147.394 273.624 155.073 280.819C162.752 288.013 177.766 286.147 179.793 292.185C181.821 298.224 176.486 303.84 185.196 310.44C193.906 317.04 205.39 311.377 207.661 316.571C209.932 321.766 208.825 334.706 215.555 341.168C224.725 349.947 238.351 352.535 255.522 344.56C272.693 336.584 280.39 320.267 290.78 307.576C301.17 294.885 311.66 300.754 325.698 297.961C339.736 295.168 344.083 284.822 346.43 274.11C348.777 263.397 347.263 258.025 365.879 255.066C384.494 252.107 381.974 225.642 378.329 222.96ZM317.739 288.052C313.235 282.924 311.024 244.884 311.024 244.884C312.333 237.372 316.629 252.131 318.767 253.974C320.904 255.817 318.825 242.39 317.484 238.785C316.144 235.18 326.108 248.492 330.536 270.989C334.963 293.485 322.253 293.181 317.739 288.052Z" fill="white"/>
<mask id="path-11-inside-1_1_60" fill="white">
<path d="M321.164 227.754C320.732 227.473 320.237 227.146 319.831 226.817C319.654 226.683 319.468 226.561 319.273 226.453L319.032 226.334L318.791 226.206L318.715 226.193C316.825 225.468 314.865 224.939 312.866 224.615L312.221 224.502C312.042 224.471 311.847 224.437 311.662 224.345C311.425 222.893 311.137 221.432 310.82 220.036C310.637 218.772 310.689 217.487 310.973 216.243C311.244 214.691 311.478 213.347 310.681 212.546C310.436 212.325 310.147 212.155 309.833 212.049C309.519 211.942 309.186 211.901 308.856 211.927C307.673 211.921 306.495 212.066 305.351 212.357C304.564 212.584 303.74 212.668 302.92 212.605C302.123 211.202 301.328 209.24 301.882 208.519C302.225 208.054 302.92 207.281 303.649 206.462C304.377 205.642 304.95 204.968 305.461 204.395L305.468 204.353L306.001 203.706C306.011 203.648 306.081 203.6 306.115 203.554L306.445 203.113L306.549 202.967C306.632 202.844 306.703 202.736 306.765 202.635C306.785 202.591 306.809 202.549 306.839 202.51C306.898 202.396 306.951 202.279 306.996 202.159C307.066 202.015 307.088 201.852 307.061 201.694C307.034 201.535 306.958 201.388 306.844 201.273C306.403 200.843 305.592 200.977 304.365 201.194C303.798 201.284 303.157 201.396 302.518 201.448C302.285 201.474 302.053 201.514 301.824 201.568L301.512 201.651L301.291 201.716C299.8 202.325 298.442 203.206 297.287 204.313L296.936 204.622C296.126 205.109 295.234 205.452 294.301 205.633L294.19 205.666C293.835 205.75 293.513 205.84 293.216 205.935C292.856 206.028 292.51 206.164 292.183 206.34C291.952 206.439 291.754 206.6 291.612 206.805C291.469 207.009 291.388 207.25 291.378 207.498C291.376 208.16 291.962 208.864 293.173 209.651L293.291 209.724C294.29 210.37 295.56 211.211 296.532 211.862C295.892 211.853 295.266 212.045 294.748 212.411C294.05 213.15 294.084 215.168 295.771 217.888C297.458 220.607 298.3 223.764 298.098 225.173C297.976 225.875 297.976 225.875 296.997 225.764C296.624 225.699 296.14 225.667 295.541 225.64C293.329 225.53 281.22 223.025 276.661 222.076L275.812 221.929C270.736 220.827 265.544 220.35 260.356 220.51C259.412 220.556 258.475 220.68 257.553 220.881C257.479 219.592 256.896 218.38 255.928 217.502L256.353 217.327C258.994 216.325 260.719 214.759 261.479 212.655C262.9 208.765 260.734 203.976 258.663 200.648C256.591 197.32 252.571 194.685 247.962 193.727C244.332 192.966 240.905 193.358 238.828 194.785C238.024 195.333 237.272 195.882 236.579 196.397C234.521 197.914 232.904 199.112 231.556 198.963C230.842 198.808 230.214 198.391 229.8 197.797C229.439 197.356 229.121 196.922 228.814 196.524C226.894 193.988 225.516 192.157 219.944 192.804C217.694 193.065 216.166 193.952 215.389 195.451C214.093 197.865 215.267 201.175 216.814 203.44C217.334 204.294 217.54 205.296 217.397 206.279C217.255 207.261 216.773 208.163 216.032 208.834C214.999 209.872 213.592 210.47 212.112 210.499C211.417 210.017 210.679 209.535 209.878 209.06C205.814 206.698 201.585 204.625 197.223 202.857C196.839 202.455 195.163 200.873 193.155 201.099C192.574 201.124 192.025 201.365 191.618 201.772C191.211 202.18 190.977 202.725 190.962 203.297L186.035 205.467C185.511 205.608 179.245 207.329 174.985 208.634C171.266 209.692 167.436 210.337 163.566 210.559C162.97 210.538 162.376 210.466 161.792 210.344C160.298 210.084 158.999 209.858 158.543 210.466C158.331 210.731 158.359 211.071 158.61 211.485C160.524 214.192 162.62 216.77 164.886 219.2C166.93 221.431 173.53 227.036 176.748 227.897C179.465 228.62 182.972 229.936 183.505 230.14C183.999 230.519 186.309 232.22 188.058 232.525C188.377 232.589 188.705 232.588 189.021 232.52C190.394 232.175 190.52 230.795 190.372 229.788C194.277 229.305 198.116 228.42 201.829 227.148L201.941 227.107C203.406 227.57 204.898 227.945 206.408 228.229C207.152 228.345 207.885 228.528 208.597 228.774C208.927 228.935 210.022 229.633 211.417 230.512C214.569 232.506 219.294 235.514 222.817 237.288C225.232 238.492 226.838 239.313 227.959 239.508C228.378 239.601 228.814 239.566 229.21 239.408C230.029 239.026 230.209 237.991 230.283 237.015C230.304 236.563 230.247 236.111 230.113 235.678C233.973 236.522 238.097 237.309 240.825 237.715C246.127 238.518 255.805 241.718 255.87 241.746L255.947 241.76C256.061 241.78 256.178 241.761 256.28 241.706C256.338 241.674 256.388 241.629 256.423 241.573C256.459 241.518 256.48 241.454 256.484 241.389L256.604 239.793C256.65 239.426 256.759 239.07 256.927 238.74C257.463 238.927 257.998 239.124 258.467 239.343C262.262 241.104 265.841 243.286 269.136 245.846C271.673 247.839 274.661 249.198 277.842 249.805C278.696 249.964 279.565 250.029 280.433 249.998C281.214 250.013 281.989 249.872 282.711 249.584C283.433 249.296 284.088 248.866 284.635 248.322C286.358 246.323 287.869 244.157 289.147 241.857C289.758 240.741 290.464 239.678 291.257 238.681C292.551 237.281 295.814 235.673 296.501 235.345C299.936 235.827 303.398 236.085 306.864 236.118C310.485 235.975 312.506 233.867 312.324 230.489C312.298 229.934 312.247 229.323 312.18 228.701L313.369 228.908C315.429 229.19 317.642 229.489 319.31 229.659L319.369 229.669L319.777 229.74L319.887 229.76L320.201 229.814L320.329 229.837L320.566 229.878L320.702 229.902L320.897 229.936L321.016 229.956L321.287 229.96C321.604 229.947 322.263 229.933 322.404 229.475C322.544 229.018 322.122 228.377 321.164 227.754Z"/>
</mask>
<path d="M321.164 227.754C320.732 227.473 320.237 227.146 319.831 226.817C319.654 226.683 319.468 226.561 319.273 226.453L319.032 226.334L318.791 226.206L318.715 226.193C316.825 225.468 314.865 224.939 312.866 224.615L312.221 224.502C312.042 224.471 311.847 224.437 311.662 224.345C311.425 222.893 311.137 221.432 310.82 220.036C310.637 218.772 310.689 217.487 310.973 216.243C311.244 214.691 311.478 213.347 310.681 212.546C310.436 212.325 310.147 212.155 309.833 212.049C309.519 211.942 309.186 211.901 308.856 211.927C307.673 211.921 306.495 212.066 305.351 212.357C304.564 212.584 303.74 212.668 302.92 212.605C302.123 211.202 301.328 209.24 301.882 208.519C302.225 208.054 302.92 207.281 303.649 206.462C304.377 205.642 304.95 204.968 305.461 204.395L305.468 204.353L306.001 203.706C306.011 203.648 306.081 203.6 306.115 203.554L306.445 203.113L306.549 202.967C306.632 202.844 306.703 202.736 306.765 202.635C306.785 202.591 306.809 202.549 306.839 202.51C306.898 202.396 306.951 202.279 306.996 202.159C307.066 202.015 307.088 201.852 307.061 201.694C307.034 201.535 306.958 201.388 306.844 201.273C306.403 200.843 305.592 200.977 304.365 201.194C303.798 201.284 303.157 201.396 302.518 201.448C302.285 201.474 302.053 201.514 301.824 201.568L301.512 201.651L301.291 201.716C299.8 202.325 298.442 203.206 297.287 204.313L296.936 204.622C296.126 205.109 295.234 205.452 294.301 205.633L294.19 205.666C293.835 205.75 293.513 205.84 293.216 205.935C292.856 206.028 292.51 206.164 292.183 206.34C291.952 206.439 291.754 206.6 291.612 206.805C291.469 207.009 291.388 207.25 291.378 207.498C291.376 208.16 291.962 208.864 293.173 209.651L293.291 209.724C294.29 210.37 295.56 211.211 296.532 211.862C295.892 211.853 295.266 212.045 294.748 212.411C294.05 213.15 294.084 215.168 295.771 217.888C297.458 220.607 298.3 223.764 298.098 225.173C297.976 225.875 297.976 225.875 296.997 225.764C296.624 225.699 296.14 225.667 295.541 225.64C293.329 225.53 281.22 223.025 276.661 222.076L275.812 221.929C270.736 220.827 265.544 220.35 260.356 220.51C259.412 220.556 258.475 220.68 257.553 220.881C257.479 219.592 256.896 218.38 255.928 217.502L256.353 217.327C258.994 216.325 260.719 214.759 261.479 212.655C262.9 208.765 260.734 203.976 258.663 200.648C256.591 197.32 252.571 194.685 247.962 193.727C244.332 192.966 240.905 193.358 238.828 194.785C238.024 195.333 237.272 195.882 236.579 196.397C234.521 197.914 232.904 199.112 231.556 198.963C230.842 198.808 230.214 198.391 229.8 197.797C229.439 197.356 229.121 196.922 228.814 196.524C226.894 193.988 225.516 192.157 219.944 192.804C217.694 193.065 216.166 193.952 215.389 195.451C214.093 197.865 215.267 201.175 216.814 203.44C217.334 204.294 217.54 205.296 217.397 206.279C217.255 207.261 216.773 208.163 216.032 208.834C214.999 209.872 213.592 210.47 212.112 210.499C211.417 210.017 210.679 209.535 209.878 209.06C205.814 206.698 201.585 204.625 197.223 202.857C196.839 202.455 195.163 200.873 193.155 201.099C192.574 201.124 192.025 201.365 191.618 201.772C191.211 202.18 190.977 202.725 190.962 203.297L186.035 205.467C185.511 205.608 179.245 207.329 174.985 208.634C171.266 209.692 167.436 210.337 163.566 210.559C162.97 210.538 162.376 210.466 161.792 210.344C160.298 210.084 158.999 209.858 158.543 210.466C158.331 210.731 158.359 211.071 158.61 211.485C160.524 214.192 162.62 216.77 164.886 219.2C166.93 221.431 173.53 227.036 176.748 227.897C179.465 228.62 182.972 229.936 183.505 230.14C183.999 230.519 186.309 232.22 188.058 232.525C188.377 232.589 188.705 232.588 189.021 232.52C190.394 232.175 190.52 230.795 190.372 229.788C194.277 229.305 198.116 228.42 201.829 227.148L201.941 227.107C203.406 227.57 204.898 227.945 206.408 228.229C207.152 228.345 207.885 228.528 208.597 228.774C208.927 228.935 210.022 229.633 211.417 230.512C214.569 232.506 219.294 235.514 222.817 237.288C225.232 238.492 226.838 239.313 227.959 239.508C228.378 239.601 228.814 239.566 229.21 239.408C230.029 239.026 230.209 237.991 230.283 237.015C230.304 236.563 230.247 236.111 230.113 235.678C233.973 236.522 238.097 237.309 240.825 237.715C246.127 238.518 255.805 241.718 255.87 241.746L255.947 241.76C256.061 241.78 256.178 241.761 256.28 241.706C256.338 241.674 256.388 241.629 256.423 241.573C256.459 241.518 256.48 241.454 256.484 241.389L256.604 239.793C256.65 239.426 256.759 239.07 256.927 238.74C257.463 238.927 257.998 239.124 258.467 239.343C262.262 241.104 265.841 243.286 269.136 245.846C271.673 247.839 274.661 249.198 277.842 249.805C278.696 249.964 279.565 250.029 280.433 249.998C281.214 250.013 281.989 249.872 282.711 249.584C283.433 249.296 284.088 248.866 284.635 248.322C286.358 246.323 287.869 244.157 289.147 241.857C289.758 240.741 290.464 239.678 291.257 238.681C292.551 237.281 295.814 235.673 296.501 235.345C299.936 235.827 303.398 236.085 306.864 236.118C310.485 235.975 312.506 233.867 312.324 230.489C312.298 229.934 312.247 229.323 312.18 228.701L313.369 228.908C315.429 229.19 317.642 229.489 319.31 229.659L319.369 229.669L319.777 229.74L319.887 229.76L320.201 229.814L320.329 229.837L320.566 229.878L320.702 229.902L320.897 229.936L321.016 229.956L321.287 229.96C321.604 229.947 322.263 229.933 322.404 229.475C322.544 229.018 322.122 228.377 321.164 227.754Z" fill="#DCE0EE" stroke="#DCE0EE" stroke-width="2" mask="url(#path-11-inside-1_1_60)"/>
<path opacity="0.7" d="M321.164 227.754C320.732 227.473 320.237 227.146 319.831 226.817C319.654 226.683 319.468 226.561 319.273 226.453L319.032 226.334L318.791 226.206L318.715 226.193C316.825 225.468 314.865 224.939 312.866 224.615L312.221 224.502C312.042 224.471 311.847 224.437 311.662 224.345C311.425 222.893 311.137 221.432 310.82 220.036C310.637 218.772 310.689 217.487 310.973 216.243C311.244 214.691 311.478 213.347 310.681 212.546C310.436 212.325 310.147 212.155 309.833 212.049C309.519 211.942 309.186 211.901 308.856 211.927C307.673 211.921 306.495 212.066 305.351 212.357C304.564 212.584 303.74 212.668 302.92 212.605C302.123 211.202 301.328 209.24 301.882 208.519C302.225 208.054 302.92 207.281 303.649 206.462C304.377 205.642 304.95 204.968 305.461 204.395L305.468 204.353L306.001 203.706C306.011 203.648 306.081 203.6 306.115 203.554L306.445 203.113L306.549 202.967C306.632 202.844 306.703 202.736 306.765 202.635C306.785 202.591 306.809 202.549 306.839 202.51C306.898 202.396 306.951 202.279 306.996 202.159C307.066 202.015 307.088 201.852 307.061 201.694C307.034 201.535 306.958 201.388 306.844 201.273C306.403 200.843 305.592 200.977 304.365 201.194C303.798 201.284 303.157 201.396 302.518 201.448C302.285 201.474 302.053 201.514 301.824 201.568L301.512 201.651L301.291 201.716C299.8 202.325 298.442 203.206 297.287 204.313L296.936 204.622C296.126 205.109 295.234 205.452 294.301 205.633L294.19 205.666C293.835 205.75 293.513 205.84 293.216 205.935C292.856 206.028 292.51 206.164 292.183 206.34C291.952 206.439 291.754 206.6 291.612 206.805C291.469 207.009 291.388 207.25 291.378 207.498C291.376 208.16 291.962 208.864 293.173 209.651L293.291 209.724C294.29 210.37 295.56 211.211 296.532 211.862C295.892 211.853 295.266 212.045 294.748 212.411C294.05 213.15 294.084 215.168 295.771 217.888C297.458 220.607 298.3 223.764 298.098 225.173C297.976 225.875 297.976 225.875 296.997 225.764C296.624 225.699 296.14 225.667 295.541 225.64C293.329 225.53 281.22 223.025 276.661 222.076L275.812 221.929C270.736 220.827 265.544 220.35 260.356 220.51C259.412 220.556 258.475 220.68 257.553 220.881C257.479 219.592 256.896 218.38 255.928 217.502L256.353 217.327C258.994 216.325 260.719 214.759 261.479 212.655C262.9 208.765 260.734 203.976 258.663 200.648C256.591 197.32 252.571 194.685 247.962 193.727C244.332 192.966 240.905 193.358 238.828 194.785C238.024 195.333 237.272 195.882 236.579 196.397C234.521 197.914 232.904 199.112 231.556 198.963C230.842 198.808 230.214 198.391 229.8 197.797C229.439 197.356 229.121 196.922 228.814 196.524C226.894 193.988 225.516 192.157 219.944 192.804C217.694 193.065 216.166 193.952 215.389 195.451C214.093 197.865 215.267 201.175 216.814 203.44C217.334 204.294 217.54 205.296 217.397 206.279C217.255 207.261 216.773 208.163 216.032 208.834C214.999 209.872 213.592 210.47 212.112 210.499C211.417 210.017 210.679 209.535 209.878 209.06C205.814 206.698 201.585 204.625 197.223 202.857C196.839 202.455 195.163 200.873 193.155 201.099C192.574 201.124 192.025 201.365 191.618 201.772C191.211 202.18 190.977 202.725 190.962 203.297L186.035 205.467C185.511 205.608 179.245 207.329 174.985 208.634C171.266 209.692 167.436 210.337 163.566 210.559C162.97 210.538 162.376 210.466 161.792 210.344C160.298 210.084 158.999 209.858 158.543 210.466C158.331 210.731 158.359 211.071 158.61 211.485C160.524 214.192 162.62 216.77 164.886 219.2C166.93 221.431 173.53 227.036 176.748 227.897C179.465 228.62 182.972 229.936 183.505 230.14C183.999 230.519 186.309 232.22 188.058 232.525C188.377 232.589 188.705 232.588 189.021 232.52C190.394 232.175 190.52 230.795 190.372 229.788C194.277 229.305 198.116 228.42 201.829 227.148L201.941 227.107C203.406 227.57 204.898 227.945 206.408 228.229C207.152 228.345 207.885 228.528 208.597 228.774C208.927 228.935 210.022 229.633 211.417 230.512C214.569 232.506 219.294 235.514 222.817 237.288C225.232 238.492 226.838 239.313 227.959 239.508C228.378 239.601 228.814 239.566 229.21 239.408C230.029 239.026 230.209 237.991 230.283 237.015C230.304 236.563 230.247 236.111 230.113 235.678C233.973 236.522 238.097 237.309 240.825 237.715C246.127 238.518 255.805 241.718 255.87 241.746L255.947 241.76C256.061 241.78 256.178 241.761 256.28 241.706C256.338 241.674 256.388 241.629 256.423 241.573C256.459 241.518 256.48 241.454 256.484 241.389L256.604 239.793C256.65 239.426 256.759 239.07 256.927 238.74C257.463 238.927 257.998 239.124 258.467 239.343C262.262 241.104 265.841 243.286 269.136 245.846C271.673 247.839 274.661 249.198 277.842 249.805C278.696 249.964 279.565 250.029 280.433 249.998C281.214 250.013 281.989 249.872 282.711 249.584C283.433 249.296 284.088 248.866 284.635 248.322C286.358 246.323 287.869 244.157 289.147 241.857C289.758 240.741 290.464 239.678 291.257 238.681C292.551 237.281 295.814 235.673 296.501 235.345C299.936 235.827 303.398 236.085 306.864 236.118C310.485 235.975 312.506 233.867 312.324 230.489C312.298 229.934 312.247 229.323 312.18 228.701L313.369 228.908C315.429 229.19 317.642 229.489 319.31 229.659L319.369 229.669L319.777 229.74L319.887 229.76L320.201 229.814L320.329 229.837L320.566 229.878L320.702 229.902L320.897 229.936L321.016 229.956L321.287 229.96C321.604 229.947 322.263 229.933 322.404 229.475C322.544 229.018 322.122 228.377 321.164 227.754Z" fill="white"/>
<path d="M128.554 237.135C128.554 237.135 136.362 224.957 137.624 216.353" stroke="white" stroke-linecap="round" stroke-linejoin="round"/>
<path d="M136.482 249.232C136.482 249.232 145.327 236.47 147.746 224.239" stroke="white" stroke-linecap="round" stroke-linejoin="round"/>
<path d="M158.992 242.849C161.019 238.481 162.112 233.745 162.203 228.933C162.203 228.933 164.554 236.43 160.065 247.939" stroke="white" stroke-linecap="round" stroke-linejoin="round"/>
<path d="M181.627 287.989C184.812 279.393 189.02 252.018 189.02 252.018C189.02 252.018 183.622 270.155 180.195 275.767" stroke="white" stroke-linecap="round" stroke-linejoin="round"/>
<path d="M298.767 248.555L309.811 271.894" stroke="white" stroke-linecap="round" stroke-linejoin="round"/>
<path d="M296.155 248.737L302.942 264.918" stroke="white" stroke-linecap="round" stroke-linejoin="round"/>
<path d="M342.723 254.706L334.27 225.685L342.692 241.825" stroke="#F1F3F8" stroke-linecap="round" stroke-linejoin="round"/>
<path d="M182.261 122.943C182.261 122.943 172.4 128.527 165.762 132.687C160.496 135.846 154.746 138.151 148.729 139.516C146.617 139.888 140.936 137.445 142.055 141.115C143.175 144.785 146.907 153.141 149.671 158.671C152.434 164.201 160.741 176.08 164.924 177.48C168.213 178.713 171.408 180.18 174.482 181.871C174.482 181.871 179.096 187.93 181.52 186.666C183.945 185.403 183.317 179.918 183.317 179.918C189.575 177.936 195.48 175.016 200.825 171.261C210.072 164.882 224.903 150.753 224.903 150.753C224.903 150.753 233.043 152.335 233.574 150.543C234.105 148.752 227.122 143.941 227.122 143.941C224.223 137.832 220.24 132.277 215.36 127.538C210.121 122.635 204.352 118.313 198.157 114.651C198.157 114.651 196.037 110.299 193.168 111.202C190.299 112.104 190.217 116.441 190.217 116.441L182.261 122.943Z" fill="white"/>
<mask id="mask0_1_60" style="mask-type:luminance" maskUnits="userSpaceOnUse" x="141" y="111" width="93" height="76">
<path d="M182.261 122.943C182.261 122.943 172.4 128.527 165.762 132.687C160.496 135.846 154.746 138.151 148.729 139.516C146.617 139.888 140.936 137.445 142.055 141.115C143.175 144.785 146.907 153.141 149.671 158.671C152.434 164.201 160.741 176.08 164.924 177.48C168.213 178.713 171.408 180.18 174.482 181.871C174.482 181.871 179.096 187.93 181.52 186.666C183.945 185.403 183.317 179.918 183.317 179.918C189.575 177.936 195.48 175.016 200.825 171.261C210.072 164.882 224.903 150.753 224.903 150.753C224.903 150.753 233.043 152.335 233.574 150.543C234.105 148.752 227.122 143.941 227.122 143.941C224.223 137.832 220.24 132.277 215.36 127.538C210.121 122.635 204.352 118.313 198.157 114.651C198.157 114.651 196.037 110.299 193.168 111.202C190.299 112.104 190.217 116.441 190.217 116.441L182.261 122.943Z" fill="white"/>
</mask>
<g mask="url(#mask0_1_60)">
<path d="M224.877 150.749C224.877 150.749 231.419 152.017 233.15 150.968C230.874 148.215 228.834 145.916 228.328 145.355C227.099 143.92 187.886 121.385 177.637 135.83C177.637 135.83 175.075 136.424 174.725 138.436L173.673 144.472C173.673 144.472 170.891 142.267 168.505 141.851C166.119 141.436 157.907 142.422 157.907 142.422C157.907 142.422 168.665 142.937 171.497 146.871C174.329 150.804 178.201 160.819 178.588 162.615C178.975 164.411 177.535 170.723 179.022 168.212C180.509 165.702 181.744 156.602 181.744 156.602C181.744 156.602 184.643 158.139 187.977 163.209C191.31 168.28 189.735 175.264 189.502 176.6C189.512 176.903 189.598 177.199 189.755 177.461C193.633 175.735 197.338 173.659 200.825 171.261C210.047 164.877 224.877 150.749 224.877 150.749Z" fill="#253F94"/>
<path opacity="0.7" d="M224.877 150.749C224.877 150.749 231.419 152.017 233.15 150.968C230.874 148.215 228.834 145.916 228.328 145.355C227.099 143.92 187.886 121.385 177.637 135.83C177.637 135.83 175.075 136.424 174.725 138.436L173.673 144.472C173.673 144.472 170.891 142.267 168.505 141.851C166.119 141.436 157.907 142.422 157.907 142.422C157.907 142.422 168.665 142.937 171.497 146.871C174.329 150.804 178.201 160.819 178.588 162.615C178.975 164.411 177.535 170.723 179.022 168.212C180.509 165.702 181.744 156.602 181.744 156.602C181.744 156.602 184.643 158.139 187.977 163.209C191.31 168.28 189.735 175.264 189.502 176.6C189.512 176.903 189.598 177.199 189.755 177.461C193.633 175.735 197.338 173.659 200.825 171.261C210.047 164.877 224.877 150.749 224.877 150.749Z" fill="white"/>
</g>
<path d="M182.104 122.844C182.104 122.844 172.244 128.428 165.605 132.588C160.34 135.747 154.59 138.052 148.573 139.417C146.461 139.789 140.78 137.346 141.899 141.016C143.018 144.686 146.751 153.042 149.514 158.572C152.278 164.102 160.585 175.981 164.768 177.381C168.057 178.614 171.252 180.081 174.326 181.772C174.326 181.772 178.94 187.831 181.364 186.567C183.789 185.304 183.161 179.819 183.161 179.819C189.419 177.837 195.324 174.917 200.669 171.162C209.916 164.783 224.747 150.654 224.747 150.654C224.747 150.654 232.887 152.236 233.418 150.444C233.948 148.653 226.965 143.842 226.965 143.842C224.067 137.733 220.084 132.178 215.204 127.439C209.965 122.536 204.196 118.214 198.001 114.552C198.001 114.552 195.88 110.2 193.011 111.103C190.142 112.005 190.06 116.342 190.06 116.342L182.104 122.844Z" stroke="#EEEEEE" stroke-linecap="round" stroke-linejoin="round"/>
<path d="M177.786 181.996C177.786 181.996 174.751 177.374 165.526 165.24C156.302 153.106 153.994 150.081 150.577 148.101C147.16 146.121 145.973 146.757 145.973 146.757C145.973 146.757 151.797 156.269 157.332 162.608C162.868 168.948 177.786 181.996 177.786 181.996Z" fill="#EEEEEE" stroke="#EEEEEE" stroke-linecap="round" stroke-linejoin="round"/>
<path d="M191.018 159.809C191.018 159.809 194.441 166.528 199.004 169.714C203.567 172.9 209.371 172.879 210.853 174.014C212.334 175.149 222.939 186.844 229.87 192.257C236.8 197.67 238.736 199.065 239.676 191.204C240.617 183.343 234.473 178.085 232.628 172.852C230.784 167.62 208.596 157.486 207.036 160.164C205.476 162.843 207.337 167.527 207.337 167.527C207.337 167.527 189.837 155.543 191.018 159.809Z" fill="white" stroke="#263238" stroke-linecap="round" stroke-linejoin="round"/>
<path d="M274.922 139.322C274.922 139.322 276.78 135.586 279.674 139.014C282.567 142.442 282.215 148.832 280.59 154.801C278.964 160.771 274.317 167.711 269.413 159.856C264.508 152 274.922 139.322 274.922 139.322Z" fill="black" stroke="black" stroke-linecap="round" stroke-linejoin="round"/>
<path d="M342.684 119.292C342.684 119.292 338.781 114.983 336.31 112.394C333.839 109.804 333.853 107.665 335.348 106.162C336.843 104.66 340.956 103.346 342.617 100.995C344.277 98.6438 347.655 93.3663 350.902 92.504C354.149 91.6418 357.352 89.2754 356.608 92.139C355.864 95.0025 349.866 104.829 348.141 108.305C346.416 111.78 349.244 120.607 349.244 120.607L342.823 121.157L342.684 119.292Z" fill="white" stroke="#D0DBFF" stroke-linecap="round" stroke-linejoin="round"/>
<path d="M335.348 106.162C333.847 107.699 333.84 109.796 336.31 112.394L336.466 112.55C337.758 111.034 338.548 109.165 338.73 107.19C338.812 106.185 338.691 105.173 338.373 104.212C337.283 104.731 336.266 105.386 335.348 106.162Z" fill="#263238" stroke="#263238" stroke-linecap="round" stroke-linejoin="round"/>
<path d="M350.902 92.5041C350.314 92.677 349.759 92.9435 349.26 93.2932C350.595 94.8662 352.131 96.2639 353.828 97.4518C353.913 97.4666 353.998 97.4814 354.071 97.5629C355.078 95.833 355.927 94.018 356.608 92.139C357.352 89.2755 354.147 91.6503 350.902 92.5041Z" fill="#263238" stroke="#263238" stroke-linecap="round" stroke-linejoin="round"/>
<path d="M344.834 154.267C344.834 154.267 347.169 149.049 348.529 145.811C349.889 142.573 351.704 141.746 353.559 142.499C355.413 143.252 357.945 146.445 360.557 147.02C363.169 147.596 368.888 148.566 370.764 151.155C372.64 153.743 375.806 155.705 373.077 156.159C370.347 156.612 359.823 155.055 356.198 154.87C352.573 154.686 346.006 160.699 346.006 160.699L343.268 155.121L344.834 154.267Z" fill="white" stroke="#D0DBFF" stroke-linecap="round" stroke-linejoin="round"/>
<path d="M353.559 142.499C351.704 141.746 349.897 142.575 348.529 145.811C348.513 145.88 348.501 145.95 348.492 146.02C350.246 146.584 352.137 146.559 353.867 145.95C354.776 145.62 355.605 145.112 356.306 144.457C355.483 143.686 354.559 143.028 353.559 142.499Z" stroke="#263238" stroke-linecap="round" stroke-linejoin="round"/>
<path d="M370.764 151.155C370.411 150.7 369.987 150.304 369.507 149.981C368.621 151.815 367.959 153.746 367.534 155.735C367.514 155.821 367.499 155.907 367.489 155.994C369.331 156.225 371.192 156.278 373.043 156.153C375.806 155.705 372.64 153.743 370.764 151.155Z" fill="#263238" stroke="#263238" stroke-linecap="round" stroke-linejoin="round"/>
<path d="M270.367 157.691C270.367 157.691 278.577 148.275 286.606 146.526C294.636 144.776 303.099 145.958 308.477 147.23C313.854 148.502 332.909 152.965 336.373 152.82C339.836 152.675 340.345 153.873 340.889 150.295C341.434 146.717 340.806 138.867 338.768 132.337C336.73 125.807 337.339 121.655 338.125 120.304C338.912 118.953 343.105 118.032 347.528 119.362C351.95 120.691 352.834 117.576 358.078 116.95C363.323 116.324 358.329 127.564 358.84 135.635C359.35 143.705 359.527 153.386 359.241 160.707C358.954 168.028 356.166 173.339 351.033 174.329C345.9 175.319 336.112 174.311 336.112 174.311C336.112 174.311 330.021 179.546 327.543 183.827C325.065 188.109 321.336 199.776 316.236 208.563C311.136 217.351 300.179 212.054 295.35 205.123C290.52 198.193 283.358 192.654 280.959 191.006C278.56 189.358 275.187 188.332 273.808 187.559C272.43 186.786 276.058 181.07 274.174 172.201C272.289 163.333 269.086 159.369 270.367 157.691Z" fill="#253F94"/>
<mask id="mask1_1_60" style="mask-type:luminance" maskUnits="userSpaceOnUse" x="270" y="116" width="91" height="98">
<path d="M270.367 157.691C270.367 157.691 278.577 148.275 286.606 146.526C294.636 144.776 303.099 145.958 308.477 147.23C313.854 148.502 332.909 152.965 336.373 152.82C339.836 152.675 340.345 153.873 340.889 150.295C341.434 146.717 340.806 138.867 338.768 132.337C336.73 125.807 337.339 121.655 338.125 120.304C338.912 118.953 343.105 118.032 347.528 119.362C351.95 120.691 352.834 117.576 358.078 116.95C363.323 116.324 358.329 127.564 358.84 135.635C359.35 143.705 359.527 153.386 359.241 160.707C358.954 168.028 356.166 173.339 351.033 174.329C345.9 175.319 336.112 174.311 336.112 174.311C336.112 174.311 330.021 179.546 327.543 183.827C325.065 188.109 321.336 199.776 316.236 208.563C311.136 217.351 300.179 212.054 295.35 205.123C290.52 198.193 283.358 192.654 280.959 191.006C278.56 189.358 275.187 188.332 273.808 187.559C272.43 186.786 276.058 181.07 274.174 172.201C272.289 163.333 269.086 159.369 270.367 157.691Z" fill="white"/>
</mask>
<g mask="url(#mask1_1_60)">
<path opacity="0.15" d="M359.268 160.652C359.554 153.331 359.369 143.648 358.867 135.579C358.548 130.63 360.309 124.486 360.509 120.625C356.744 128.329 351.679 140.331 351.416 144.654C351.046 150.8 356.166 157.566 353.524 156.761C350.882 155.957 344.848 154.236 344.975 155.617C345.102 156.998 353.874 163.041 352.473 162.797C351.072 162.553 346.673 155.912 344.918 159.761C343.163 163.609 347.263 166.388 334.558 162.79C321.852 159.192 307.053 157.312 304.036 158.515C301.018 159.718 287.706 171.556 286.921 170.035C286.136 168.514 294.694 161.722 293.619 159.806C292.544 157.89 291.618 163.259 284.381 166.488C277.143 169.717 277.541 169.442 277.541 169.442L274.097 171.638C274.13 171.798 274.175 171.944 274.207 172.112C276.096 180.956 272.464 186.688 273.841 187.47C275.219 188.252 278.595 189.261 280.992 190.917C283.389 192.573 290.552 198.113 295.383 205.035C300.213 211.957 311.181 217.247 316.269 208.475C321.358 199.702 325.081 188.017 327.576 183.738C330.071 179.46 336.145 174.222 336.145 174.222C336.145 174.222 345.919 175.262 351.066 174.24C356.213 173.219 358.976 168.006 359.268 160.652Z" fill="black"/>
</g>
<path d="M270.367 157.691C270.367 157.691 278.577 148.275 286.606 146.526C294.636 144.776 303.099 145.958 308.477 147.23C313.854 148.502 332.909 152.965 336.373 152.82C339.836 152.675 340.345 153.873 340.889 150.295C341.434 146.717 340.806 138.867 338.768 132.337C336.73 125.807 337.339 121.655 338.125 120.304C338.912 118.953 343.105 118.032 347.528 119.362C351.95 120.691 352.834 117.576 358.078 116.95C363.323 116.324 358.329 127.564 358.839 135.635C359.35 143.705 359.527 153.386 359.241 160.707C358.954 168.028 356.166 173.339 351.033 174.329C345.9 175.319 336.112 174.311 336.112 174.311C336.112 174.311 330.021 179.546 327.543 183.827C325.065 188.109 321.336 199.776 316.236 208.563C311.136 217.351 300.179 212.054 295.35 205.123C290.52 198.193 283.358 192.654 280.959 191.006C278.56 189.358 275.187 188.332 273.808 187.559C272.43 186.786 276.058 181.07 274.174 172.201C272.289 163.333 269.086 159.369 270.367 157.691Z" stroke="#263238" stroke-linecap="round" stroke-linejoin="round"/>
<path d="M194.302 157.835C194.302 157.835 195.679 158.565 184.531 156.623C173.382 154.682 169.294 143.648 173.185 141.402C177.075 139.155 178.53 139.391 178.53 139.391C178.53 139.391 169.326 137.788 181.573 127.648C193.819 117.508 205.499 124.934 214.122 129.877C222.744 134.819 230.33 119.944 227.376 111.087C224.422 102.23 224.233 88.9518 233.224 86.097C242.216 83.2423 242.769 88.7571 245.97 96.1952C249.172 103.633 253.57 95.5578 260.47 87.4362C267.369 79.3147 282.341 82.4124 287.087 97.955C291.834 113.498 292.042 129.781 281.17 137.658C270.297 145.535 267.809 162.784 252.797 160.17C237.786 157.555 215.782 143.402 201.917 145.907C188.052 148.412 194.302 157.835 194.302 157.835Z" fill="black" stroke="#263238" stroke-linecap="round" stroke-linejoin="round"/>
<path d="M186.528 135.108C189.461 132.282 193.506 129.253 197.909 128.532C206.642 127.112 216.869 134.294 237.775 140.386C258.681 146.479 267.088 144.021 275.07 129.68C283.053 115.34 280.227 97.2075 274.42 96.196C268.612 95.1845 261.855 105.3 264.663 109.221C267.47 113.142 274.404 110.453 275.234 105.687C276.064 100.92 269.418 104.674 269.418 104.674" stroke="white" stroke-linecap="round" stroke-linejoin="round"/>
<path d="M181.86 140.462C181.86 140.462 182.549 139.472 183.758 138.057" stroke="white" stroke-linecap="round" stroke-linejoin="round"/>
<path d="M260.253 128.51C261.582 127.505 262.673 126.228 263.451 124.767" stroke="white" stroke-linecap="round" stroke-linejoin="round"/>
<path d="M230.535 133.234C230.535 133.234 245.964 135.061 256.041 130.899" stroke="white" stroke-linecap="round" stroke-linejoin="round"/>
<path d="M236.423 99.4262C236.423 99.4262 240.869 104.441 243.08 97.4721C245.291 90.5035 237.445 87.8298 233.303 91.5206C229.161 95.2114 233.078 107.178 235.222 114.913C237.365 122.649 234.185 129.457 226.498 130.596" stroke="white" stroke-linecap="round" stroke-linejoin="round"/>
<path d="M188.778 139.972C188.778 139.972 201.81 143.102 208.178 140.444C214.546 137.786 216.087 135.723 221.297 136.347" stroke="white" stroke-linecap="round" stroke-linejoin="round"/>
<path d="M211.044 153.173C210.95 151.07 211.143 148.966 211.618 146.917C212.433 142.888 214.722 139.992 221.946 144.373C229.171 148.753 241.81 158.007 249.377 158.714C256.943 159.421 266.931 149.49 268.767 146.335C270.602 143.179 274.95 139.361 274.95 139.361C274.95 139.361 269.943 146.41 271.558 151.508C273.172 156.606 281.259 162.659 281.108 173.977C280.956 185.295 277.664 189.383 277.214 193.321L276.757 197.249C276.757 197.249 263.236 191.102 255.594 190.072C247.953 189.042 232.636 185.463 228.041 182.865C223.446 180.267 212.672 167.287 210.075 164.917C207.478 162.546 205.802 158.006 211.044 153.173Z" fill="#253F94"/>
<mask id="mask2_1_60" style="mask-type:luminance" maskUnits="userSpaceOnUse" x="207" y="139" width="75" height="59">
<path d="M211.044 153.173C210.95 151.07 211.143 148.966 211.618 146.917C212.433 142.888 214.722 139.992 221.946 144.373C229.171 148.753 241.81 158.007 249.377 158.714C256.943 159.421 266.931 149.49 268.767 146.335C270.602 143.179 274.95 139.361 274.95 139.361C274.95 139.361 269.943 146.41 271.558 151.508C273.172 156.606 281.259 162.659 281.108 173.977C280.956 185.295 277.664 189.383 277.214 193.321L276.757 197.249C276.757 197.249 263.236 191.102 255.594 190.072C247.953 189.042 232.636 185.463 228.041 182.865C223.446 180.267 212.672 167.287 210.075 164.917C207.478 162.546 205.802 158.006 211.044 153.173Z" fill="white"/>
</mask>
<g mask="url(#mask2_1_60)">
<path opacity="0.15" d="M277.186 193.282C277.588 189.765 280.252 186.075 280.924 177.342C277.785 176.996 274.612 177.131 271.52 177.742C264.261 179.239 256.39 177.868 257.525 177.378C258.66 176.887 270.796 173.815 274.185 172.134C277.575 170.454 251.21 177.319 244.439 171.994C237.668 166.669 219.878 151.478 216.061 151.192C212.244 150.905 213.022 156.537 213.022 156.537L208.473 156.432C207.698 157.8 207.431 159.393 207.716 160.939C208.002 162.485 208.824 163.889 210.041 164.911C212.638 167.281 223.412 180.261 228.007 182.859C232.603 185.457 247.927 189.037 255.56 190.066C263.193 191.094 276.723 197.244 276.723 197.244L277.186 193.282Z" fill="black"/>
</g>
<path d="M211.044 153.173C210.95 151.07 211.143 148.966 211.618 146.917C212.433 142.888 214.722 139.992 221.946 144.373C229.171 148.753 241.81 158.007 249.377 158.714C256.943 159.421 266.931 149.49 268.767 146.335C270.602 143.179 274.95 139.361 274.95 139.361C274.95 139.361 269.943 146.41 271.558 151.508C273.172 156.606 281.259 162.659 281.108 173.977C280.956 185.295 277.664 189.383 277.214 193.321L276.757 197.249C276.757 197.249 263.236 191.102 255.594 190.072C247.953 189.042 232.636 185.463 228.041 182.865C223.446 180.267 212.672 167.287 210.075 164.917C207.478 162.546 205.802 158.006 211.044 153.173Z" stroke="#263238" stroke-linecap="round" stroke-linejoin="round"/>
<path d="M206.993 160.157C206.993 160.157 207.842 160.305 211.022 162.14C214.202 163.975 219.261 170.086 219.78 167.106C220.299 164.126 214.061 154.284 211.1 152.048C208.139 149.812 208.341 147.8 208.139 149.812C207.937 151.824 206.993 160.157 206.993 160.157Z" fill="white" stroke="#263238" stroke-linecap="round" stroke-linejoin="round"/>
<path d="M190.333 157.315C190.333 157.315 189.809 160.32 194.017 163.59C198.224 166.86 202.483 171.086 206.288 170.837C210.093 170.588 211.933 171.63 211.933 171.63L233.914 183.2C241.162 187.042 245.627 187.725 247.588 184.351C249.55 180.977 242.606 167.753 234.39 157.11C229.331 150.544 216.77 140.186 213.019 140.831C210.453 141.244 207.979 144.254 211.565 150.185C215.151 156.116 224.83 163.074 227.892 167.796C230.954 172.518 231.361 173.999 231.361 173.999C231.361 173.999 214.935 168.558 211.16 166.12C207.385 163.683 205.419 162.867 204.088 161.517C202.757 160.167 189.309 154.35 190.333 157.315Z" fill="white" stroke="#263238" stroke-linecap="round" stroke-linejoin="round"/>
<path d="M231.363 173.991C231.363 173.991 234.161 178.822 235.966 180.409" stroke="#263238" stroke-linecap="round" stroke-linejoin="round"/>
<path d="M181.466 144.986C181.466 144.986 184.032 151.754 187.195 154.584C190.359 157.415 200.639 164.09 205.046 163.404C209.452 162.718 209.801 156.191 209.271 150.947C208.974 147.758 207.789 144.706 205.847 142.128C205.847 142.128 203.691 143.206 199.36 142.907C195.029 142.609 184.349 141.893 181.466 144.986Z" fill="white" stroke="#263238" stroke-linecap="round" stroke-linejoin="round"/>
<path d="M192.06 151.716L195.934 156.597C195.934 156.597 198.1 158.126 198.653 156.055" stroke="#263238" stroke-linecap="round" stroke-linejoin="round"/>
<path d="M199.941 159.161C199.941 159.161 203.16 158.861 203.174 154.108" stroke="#263238" stroke-linecap="round" stroke-linejoin="round"/>
<path d="M195.433 148.528L196.516 150.342C196.516 150.342 198.841 151.057 200.341 147.422" stroke="#263238" stroke-linecap="round" stroke-linejoin="round"/>
<path d="M189.572 153.897L190.886 155.846C190.886 155.846 192.98 156.435 193 153.755" stroke="#263238" stroke-linecap="round" stroke-linejoin="round"/>
<path d="M192.446 146.838C192.446 146.838 192.759 143.134 197.316 144.246" stroke="#263238" stroke-linecap="round" stroke-linejoin="round"/>
<path d="M190.245 150.136C190.245 150.136 188.143 149.546 187.853 152.669" stroke="#263238" stroke-linecap="round" stroke-linejoin="round"/>
<path d="M336.132 174.245C336.132 174.245 306.241 173.778 299.023 177.2" stroke="#263238" stroke-linecap="round" stroke-linejoin="round"/>
<path d="M299.272 185.715C302.588 181.866 306.269 178.337 310.267 175.176C310.267 175.176 301.737 190.402 303.131 199.572" stroke="#263238" stroke-linecap="round" stroke-linejoin="round"/>
</svg>
